<?xml version="1.0" encoding="utf-8"?>
<!-- Generator: Adobe Illustrator 25.2.0, SVG Export Plug-In . SVG Version: 6.00 Build 0)  -->
<svg version="1.1" id="Layer_1" xmlns="http://www.w3.org/2000/svg" xmlns:xlink="http://www.w3.org/1999/xlink" x="0px" y="0px"
	 viewBox="0 0 71 614.2" style="enable-background:new 0 0 71 614.2;" xml:space="preserve">
<style type="text/css">
	.st0{opacity:0.24;}
	.st1{fill:none;stroke:#FFFFFF;stroke-width:1.4728;stroke-miterlimit:10;}
</style>
<g class="st0">
	<path class="st1" d="M0.7,570.9c0-27,9.5-41.2,30.8-42.2v25.7c-6.4,1-9.6,5.9-9.6,16.5c0,14.9,6.3,17.4,13.4,17.4
		c7.2,0,13.6-2.6,13.6-17.4c0-10.6-3.3-15.6-9.8-16.5v-25.7c21.4,1.1,31,15.1,31,42.2c0,29.8-11.3,42.5-34.9,42.5
		C11.9,613.4,0.7,600.7,0.7,570.9z"/>
	<path class="st1" d="M35.4,522.9c-23.5,0-34.7-12.8-34.7-42.5c0-29.7,11.3-42.5,34.7-42.5c23.5,0,34.9,12.8,34.9,42.5
		C70.3,510.2,59,522.9,35.4,522.9z M35.4,463c-7.1,0-13.4,2.5-13.4,17.4s6.3,17.4,13.4,17.4c7.2,0,13.6-2.6,13.6-17.4
		S42.6,463,35.4,463z"/>
	<path class="st1" d="M1.7,344h67.6v32.8L29.4,406h39.9v25.1H1.7v-32.8l39.9-29.2H1.7V344z"/>
	<path class="st1" d="M23,254.1v29h46.4v25.1H23v29H1.7v-83.1H23z"/>
	<path class="st1" d="M57.2,202.7v28.8l12.2,4.6v27.6l-67.6-28v-37.3l67.6-28v27.6L57.2,202.7z M39.8,209.3l-20.7,7.8l20.7,7.8
		V209.3z"/>
	<path class="st1" d="M0.7,130.9c0-27,9.5-41.2,30.8-42.2v25.7c-6.4,1-9.6,5.9-9.6,16.5c0,14.9,6.3,17.4,13.4,17.4
		c7.2,0,13.6-2.6,13.6-17.4c0-10.6-3.3-15.6-9.8-16.5V88.7c21.4,1.1,31,15.1,31,42.2c0,29.8-11.3,42.5-34.9,42.5
		C11.9,173.4,0.7,160.6,0.7,130.9z"/>
	<path class="st1" d="M23,0.7v29h46.4v25.1H23v29H1.7V0.7H23z"/>
</g>
</svg>
