<?xml version="1.0" encoding="utf-8"?>
<!-- Generator: Adobe Illustrator 25.3.1, SVG Export Plug-In . SVG Version: 6.00 Build 0)  -->
<svg version="1.1" id="Layer_1" xmlns="http://www.w3.org/2000/svg" xmlns:xlink="http://www.w3.org/1999/xlink" x="0px" y="0px"
	 viewBox="0 0 393.5 134.3" style="enable-background:new 0 0 393.5 134.3;" xml:space="preserve">
<style type="text/css">
	.st0{fill:#FFFFFF;}
</style>
<path class="st0" d="M20.2,36.8c0,2.6,2.5,4.4,15.3,4.4c12,0,13.9-0.7,13.9-2.8c0-2.3-1.8-2.6-14.6-3C10.2,34.7,0.7,30.5,0.7,17.8
	C0.7,5.9,12.5,0.6,34,0.6c21.3,0,33.3,5.1,33.3,19.2H47.2c0-2.8-4.8-3.5-14.6-3.5c-9.5,0-11.4,0.5-11.4,2.6S23.1,21,35,21.3
	c21.5,0.9,34.9,2.3,34.9,16.5C69.9,53,57.4,56.7,35,56.7C12.5,56.9,0,53,0,36.8H20.2L20.2,36.8z"/>
<polygon class="st0" points="141.6,18.7 118.1,18.7 118.1,56.2 97.9,56.2 97.9,18.7 74.5,18.7 74.5,1.5 141.6,1.5 "/>
<path class="st0" d="M182.9,56.9c-24.1,0-34.3-9.2-34.3-28.2V1.5h20.2v27.3c0,5.8,2.1,10.9,14.1,10.9c12,0,14.1-5.3,14.1-10.9V1.5
	h20.2v27.3C217.3,47.8,206.9,56.9,182.9,56.9z"/>
<path class="st0" d="M291.2,28.7c0,18.5-12.3,27.3-25.5,27.3h-40.5V1.5h40.5C278.9,1.5,291.2,10.3,291.2,28.7z M271,28.7
	c0-10.2-7.2-10.2-11.6-10.2h-14.1v20.2h14.1C263.7,39,271,39,271,28.7z"/>
<rect x="298.3" y="1.5" class="st0" width="20.2" height="54.6"/>
<path class="st0" d="M324.8,28.7c0-19,10.4-28,34.3-28s34.3,9.2,34.3,28c0,19-10.4,28.2-34.3,28.2C335,56.9,324.8,47.8,324.8,28.7z
	 M373.3,28.7c0-5.6-1.9-10.9-14.1-10.9c-12,0-14.1,5.1-14.1,10.9s2.1,10.9,14.1,10.9C371.1,39.7,373.3,34.6,373.3,28.7z"/>
<polygon class="st0" points="99.7,133.4 75.6,133.4 75.6,102.6 58,133.4 42.3,133.4 24.6,102.6 24.6,133.4 0.6,133.4 0.6,68.7 
	30.2,68.7 50.1,105.7 70.1,68.7 99.7,68.7 "/>
<path class="st0" d="M107.1,100.9c0-22.5,12.2-33.2,40.7-33.2c28.4,0,40.7,10.8,40.7,33.2c0,22.5-12.3,33.4-40.7,33.4
	C119.3,134.3,107.1,123.5,107.1,100.9z M164.4,100.9c0-6.8-2.4-12.9-16.6-12.9c-14.2,0-16.6,6-16.6,12.9s2.5,13,16.6,13
	C161.9,114,164.4,107.8,164.4,100.9z"/>
<path class="st0" d="M238.7,67.7c25.9,0,39.4,9.1,40.4,29.5h-24.6c-0.9-6.1-5.6-9.2-15.8-9.2c-14.2,0-16.6,6-16.6,12.9
	c0,6.9,2.5,13,16.6,13c10.2,0,14.9-3.1,15.8-9.3h24.6c-1,20.5-14.4,29.7-40.4,29.7c-28.5,0-40.7-10.8-40.7-33.4
	C198,78.5,210.2,67.7,238.7,67.7z"/>
<path class="st0" d="M348.9,121.7h-27.5l-4.4,11.7h-26.4l26.8-64.7h35.7l26.8,64.7h-26.4L348.9,121.7z M342.6,105.1l-7.5-19.8
	l-7.5,19.8H342.6z"/>
<path class="st0" d="M198.1,128.4c0,2.7-2.2,4.8-4.8,4.8s-4.8-2.2-4.8-4.8c0-2.6,2.2-4.8,4.8-4.8S198.1,125.8,198.1,128.4z"/>
<path class="st0" d="M286.8,128.4c0,2.7-2.2,4.8-4.8,4.8s-4.8-2.2-4.8-4.8c0-2.6,2.2-4.8,4.8-4.8S286.8,125.8,286.8,128.4z"/>
<path class="st0" d="M393.5,128.4c0,2.7-2.2,4.8-4.8,4.8s-4.8-2.2-4.8-4.8c0-2.6,2.2-4.8,4.8-4.8S393.5,125.8,393.5,128.4z"/>
</svg>
