<?xml version="1.0" encoding="utf-8"?>
<!-- Generator: Adobe Illustrator 25.2.0, SVG Export Plug-In . SVG Version: 6.00 Build 0)  -->
<svg version="1.1" id="Layer_1" xmlns="http://www.w3.org/2000/svg" xmlns:xlink="http://www.w3.org/1999/xlink" x="0px" y="0px"
	 viewBox="0 0 268.6 108.9" style="enable-background:new 0 0 268.6 108.9;" xml:space="preserve">
<style type="text/css">
	.st0{fill:#FFFFFF;}
</style>
<g>
	<path class="st0" d="M13.9,24.7c0,1.8,1.7,3,10.5,3c8.2,0,9.4-0.5,9.4-1.9c0-1.6-1.2-1.8-10-2.1C7,23.2,0.5,20.4,0.5,11.7
		C0.5,3.5,8.6,0,23.3,0C37.8,0,46,3.5,46,13.1H32.2c0-2-3.2-2.4-10-2.4c-6.5,0-7.8,0.3-7.8,1.8c0,1.4,1.3,1.4,9.4,1.7
		c14.7,0.6,23.8,1.6,23.8,11.3c0,10.3-8.5,12.9-23.8,12.9C8.5,38.4,0,35.8,0,24.7H13.9z"/>
	<path class="st0" d="M96.7,12.3h-16v25.6H66.8V12.3h-16V0.5h45.8V12.3z"/>
	<path class="st0" d="M124.9,38.4c-16.4,0-23.4-6.2-23.4-19.2V0.5h13.9v18.6c0,4,1.4,7.5,9.6,7.5c8.2,0,9.6-3.6,9.6-7.5V0.5h13.9
		v18.6C148.3,32.1,141.2,38.4,124.9,38.4z"/>
	<path class="st0" d="M198.8,19.2c0,12.7-8.5,18.6-17.5,18.6h-27.7V0.5h27.7C190.4,0.5,198.8,6.5,198.8,19.2z M185,19.2
		c0-6.9-4.9-6.9-7.9-6.9h-9.6v13.9h9.6C180.1,26.1,185,26.1,185,19.2z"/>
	<path class="st0" d="M217.5,37.8h-13.9V0.5h13.9V37.8z"/>
	<path class="st0" d="M221.7,19.1c0-12.9,7-19.1,23.4-19.1c16.4,0,23.4,6.2,23.4,19.1c0,12.9-7.1,19.2-23.4,19.2
		C228.8,38.4,221.7,32.1,221.7,19.1z M254.8,19.1c0-3.9-1.4-7.4-9.6-7.4c-8.2,0-9.6,3.5-9.6,7.4c0,4,1.4,7.5,9.6,7.5
		S254.8,23.1,254.8,19.1z"/>
	<path class="st0" d="M72.6,108.2H55.2V85.9l-12.8,22.3H31L18.2,85.9v22.3H0.8V61.3h21.4l14.5,26.8l14.5-26.8h21.4V108.2z"/>
	<path class="st0" d="M78,84.7c0-16.3,8.8-24.1,29.5-24.1c20.6,0,29.5,7.8,29.5,24.1c0,16.3-8.9,24.2-29.5,24.2
		C86.8,108.9,78,101.1,78,84.7z M119.5,84.7c0-4.9-1.7-9.3-12.1-9.3s-12.1,4.4-12.1,9.3c0,5,1.8,9.4,12.1,9.4S119.5,89.7,119.5,84.7
		z"/>
	<path class="st0" d="M171.8,60.7c18.8,0,28.5,6.6,29.3,21.4h-17.8c-0.7-4.4-4.1-6.6-11.5-6.6c-10.3,0-12.1,4.4-12.1,9.3
		c0,5,1.8,9.4,12.1,9.4c7.4,0,10.8-2.3,11.5-6.8h17.8c-0.7,14.9-10.5,21.5-29.3,21.5c-20.6,0-29.5-7.8-29.5-24.2
		C142.3,68.4,151.2,60.7,171.8,60.7z"/>
	<path class="st0" d="M242.7,99.8h-20l-3.2,8.4h-19.2l19.4-46.9h25.9l19.4,46.9H246L242.7,99.8z M238.2,87.7l-5.4-14.3l-5.4,14.3
		H238.2z"/>
</g>
</svg>
