<?xml version="1.0" encoding="utf-8"?>
<!-- Generator: Adobe Illustrator 25.2.3, SVG Export Plug-In . SVG Version: 6.00 Build 0)  -->
<svg version="1.1" id="Layer_1" xmlns="http://www.w3.org/2000/svg" xmlns:xlink="http://www.w3.org/1999/xlink" x="0px" y="0px"
	 viewBox="0 0 73.5 592.2" style="enable-background:new 0 0 73.5 592.2;" xml:space="preserve">
<style type="text/css">
	.st0{opacity:0.24;}
	.st1{fill:none;stroke:#FFFFFF;stroke-width:1.4728;stroke-miterlimit:10;}
</style>
<g class="st0">
	<path class="st1" d="M0.7,547.4c0-28,9.8-42.6,31.9-43.7v26.6c-6.6,1-9.9,6.1-9.9,17.1c0,15.4,6.5,18,13.9,18
		c7.5,0,14.1-2.7,14.1-18c0-11-3.4-16.1-10.1-17.1v-26.6c22.2,1.1,32.1,15.6,32.1,43.7c0,30.8-11.7,44-36.1,44
		C12.3,591.5,0.7,578.3,0.7,547.4z"/>
	<path class="st1" d="M59.2,447.5v29.8l12.6,4.8v28.6l-70-29v-38.6l70-29v28.6L59.2,447.5z M41.2,454.3l-21.4,8.1l21.4,8.1V454.3z"
		/>
	<path class="st1" d="M51.7,342.6l20.1-12.4V361l-16.4,9.7V386h16.4v26h-70v-55c0-15.9,11.2-26.8,26.8-26.8
		C38.8,330.2,47.2,334.9,51.7,342.6z M33.4,386v-24c0-2.6,0-5.8-4.8-5.8s-4.8,3.2-4.8,5.8v24H33.4z"/>
	<path class="st1" d="M21.8,301.2h6.5v-48h17v48h6.5v-48h20v74h-70v-74h20V301.2z"/>
	<path class="st1" d="M21.8,224.1h6.5v-48h17v48h6.5v-48h20v74h-70v-74h20V224.1z"/>
	<path class="st1" d="M51.7,103.6l20.1-12.4V122l-16.4,9.7V147h16.4v26h-70v-55c0-15.9,11.2-26.8,26.8-26.8
		C38.8,91.2,47.2,95.9,51.7,103.6z M33.4,147v-24c0-2.6,0-5.8-4.8-5.8s-4.8,3.2-4.8,5.8v24H33.4z"/>
	<path class="st1" d="M47.1,64.2c3.4,0,5.7-3.2,5.7-19.7c0-15.4-1-17.7-3.6-17.7c-3,0-3.4,2.3-3.9,18.7c-1,31.6-6.2,43.7-22.5,43.7
		c-15.4,0-22-15.1-22-42.7c0-27.3,6.6-42.7,24.5-42.7v26c-3.7,0-4.5,6-4.5,18.7c0,12.2,0.6,14.7,3.3,14.7c2.7,0,2.6-2.5,3.2-17.7
		c1.1-27.6,3-44.7,21.3-44.7c19.3,0,24.2,16,24.2,44.7c0,28.7-4.9,44.7-25.7,44.7V64.2z"/>
</g>
</svg>
