<?xml version="1.0" encoding="utf-8"?>
<!-- Generator: Adobe Illustrator 25.2.3, SVG Export Plug-In . SVG Version: 6.00 Build 0)  -->
<svg version="1.1" id="Layer_1" xmlns="http://www.w3.org/2000/svg" xmlns:xlink="http://www.w3.org/1999/xlink" x="0px" y="0px"
	 viewBox="0 0 75 464.7" style="enable-background:new 0 0 75 464.7;" xml:space="preserve">
<style type="text/css">
	.st0{opacity:0.24;}
	.st1{fill:#FFFFFF;}
</style>
<g class="st0">
	<g>
		<path class="st1" d="M74,464.7L1,434.5v-40.4L74,363.9v30.8l-12.9,4.9V429l12.9,4.9V464.7z M2.5,433.5l70,29v-27.6L59.6,430v-31.4
			l12.9-4.9v-27.6l-70,29V433.5z M42.7,423.6l-24.7-9.3l24.7-9.3V423.6z M22.2,414.3l19,7.2v-14.4L22.2,414.3z"/>
	</g>
	<g>
		<path class="st1" d="M74,363.7H1v-63c0-15,6-22,18.9-22c4.3,0,9,1.9,13.2,5.3c5.1-6.7,11.8-10.4,18.9-10.4c13.7,0,21.9,9,21.9,24
			V363.7z M2.5,362.2h70v-64.6c0-14.3-7.4-22.5-20.4-22.5c-6.9,0-13.3,3.7-18.2,10.4l-0.5,0.6l-0.6-0.5c-4.1-3.5-8.7-5.4-12.9-5.4
			c-12.1,0-17.4,6.3-17.4,20.5V362.2z M54.6,337.1h-9v-30.3c0-2.7,0-6.7,4.5-6.7s4.5,4,4.5,6.7V337.1z M47,335.7h6.1v-28.9
			c0-3.1-0.2-5.2-3-5.2s-3,2.1-3,5.2V335.7z M27.6,337.1h-9.2v-25.2c0-2.7,0-6.7,4.6-6.7c4.6,0,4.6,4,4.6,6.7V337.1z M19.8,335.7
			h6.3v-23.8c0-3.1-0.2-5.2-3.1-5.2c-2.9,0-3.1,2.1-3.1,5.2V335.7z"/>
	</g>
	<g>
		<path class="st1" d="M37.4,275.1C11.9,275.1,0,260.6,0,229.4s11.9-45.7,37.4-45.7c25.6,0,37.6,14.5,37.6,45.7S63,275.1,37.4,275.1
			z M37.4,185.2c-24.8,0-35.9,13.6-35.9,44.2s11.1,44.2,35.9,44.2c25,0,36.1-13.6,36.1-44.2S62.4,185.2,37.4,185.2z M37.4,248.5
			c-7.4,0-14.9-2.3-14.9-19.1c0-16.9,8-19.1,14.9-19.1c7,0,15.1,2.2,15.1,19.1S44.4,248.5,37.4,248.5z M37.4,211.8
			c-7,0-13.5,2.1-13.5,17.6S30.4,247,37.4,247c7.1,0,13.7-2.1,13.7-17.6C51,213.9,44.1,211.8,37.4,211.8z"/>
	</g>
	<g>
		<path class="st1" d="M37.4,182.2H1v-28h36.4c7.1,0,13.7-2.1,13.7-17.6c0-15.5-6.9-17.6-13.7-17.6H1v-28h36.4
			C63,90.9,75,105.4,75,136.5S63,182.2,37.4,182.2z M2.5,180.7h34.9c25,0,36.1-13.6,36.1-44.2S62.4,92.3,37.4,92.3H2.5v25.1h34.9
			c7,0,15.1,2.2,15.1,19.1s-8.1,19.1-15.1,19.1H2.5V180.7z"/>
	</g>
	<g>
		<path class="st1" d="M25,89.3H1V0H25v30.6h49v28H25V89.3z M2.5,87.8h21V57.2h49V32.1h-49V1.5h-21V87.8z"/>
	</g>
</g>
</svg>
