<?xml version="1.0" encoding="utf-8"?>
<!-- Generator: Adobe Illustrator 24.1.3, SVG Export Plug-In . SVG Version: 6.00 Build 0)  -->
<svg version="1.1" id="Layer_1" xmlns="http://www.w3.org/2000/svg" xmlns:xlink="http://www.w3.org/1999/xlink" x="0px" y="0px"
	 viewBox="0 0 562.01 151" style="enable-background:new 0 0 562.01 151;" xml:space="preserve">
<style type="text/css">
	.st0{fill:#FFFFFF;}
	.st1{fill:#F4F4F4;}
</style>
<path class="st0" d="M179.99,50.47c0,1.51,1.42,2.53,8.74,2.53c6.83,0,7.85-0.44,7.85-1.6c0-1.33-1.02-1.51-8.29-1.73
	c-14.01-0.44-19.38-2.75-19.38-9.98c0-6.83,6.7-9.75,18.93-9.75c12.1,0,18.93,2.93,18.93,10.86h-11.53c0-1.64-2.66-2-8.29-2
	c-5.41,0-6.52,0.27-6.52,1.46s1.11,1.15,7.85,1.42c12.24,0.49,19.82,1.33,19.82,9.44c0,8.56-7.09,10.73-19.82,10.73
	c-12.73,0-19.82-2.17-19.82-11.39H179.99z"/>
<polygon class="st0" points="248.88,40.14 235.58,40.14 235.58,61.42 224.06,61.42 224.06,40.14 210.76,40.14 210.76,30.38 
	248.88,30.38 "/>
<path class="st0" d="M272.38,61.86c-13.66,0-19.51-5.19-19.51-16V30.38h11.53v15.47c0,3.32,1.19,6.25,7.98,6.25
	c6.78,0,7.98-2.97,7.98-6.25V30.38h11.53v15.47C291.88,56.63,285.98,61.86,272.38,61.86z"/>
<path class="st0" d="M333.9,45.9c0,10.55-7.05,15.52-14.54,15.52h-23.05V30.38h23.05C326.86,30.38,333.9,35.35,333.9,45.9z
	 M322.38,45.9c0-5.76-4.08-5.76-6.56-5.76h-7.98v11.53h7.98C318.3,51.66,322.38,51.66,322.38,45.9z"/>
<rect x="337.89" y="30.38" class="st0" width="11.53" height="31.03"/>
<path class="st0" d="M352.96,45.86c0-10.77,5.85-15.92,19.51-15.92c13.61,0,19.51,5.19,19.51,15.92c0,10.77-5.9,16-19.51,16
	C358.81,61.86,352.96,56.67,352.96,45.86z M380.45,45.86c0-3.24-1.15-6.16-7.98-6.16c-6.83,0-7.98,2.88-7.98,6.16
	c0,3.32,1.19,6.25,7.98,6.25C379.25,52.11,380.45,49.14,380.45,45.86z"/>
<polygon class="st0" points="268.16,138.36 244.11,138.36 244.11,107.57 226.45,138.36 210.73,138.36 193.07,107.57 193.07,138.36 
	169.03,138.36 169.03,73.64 198.62,73.64 218.59,110.62 238.57,73.64 268.16,73.64 "/>
<path class="st0" d="M275.56,105.91c0-22.47,12.2-33.19,40.68-33.19c28.39,0,40.68,10.82,40.68,33.19
	c0,22.47-12.3,33.38-40.68,33.38C287.76,139.29,275.56,128.47,275.56,105.91z M332.89,105.91c0-6.75-2.4-12.85-16.64-12.85
	c-14.24,0-16.64,6.01-16.64,12.85c0,6.94,2.5,13.04,16.64,13.04C330.39,118.94,332.89,112.75,332.89,105.91z"/>
<path class="st0" d="M407.18,72.71c25.89,0,39.39,9.06,40.41,29.5h-24.6c-0.92-6.1-5.64-9.15-15.81-9.15
	c-14.24,0-16.64,6.01-16.64,12.85c0,6.94,2.5,13.04,16.64,13.04c10.17,0,14.89-3.14,15.81-9.34h24.6
	c-1.02,20.53-14.43,29.68-40.41,29.68c-28.48,0-40.68-10.82-40.68-33.38C366.49,83.44,378.7,72.71,407.18,72.71z"/>
<path class="st0" d="M517.33,126.71h-27.55l-4.44,11.65H458.9l26.81-64.73h35.69l26.81,64.73h-26.44L517.33,126.71z M511.05,110.07
	l-7.49-19.79l-7.49,19.79H511.05z"/>
<path class="st0" d="M366.61,133.39c0,2.67-2.17,4.84-4.84,4.84s-4.84-2.17-4.84-4.84s2.17-4.84,4.84-4.84
	S366.61,130.72,366.61,133.39z"/>
<path class="st0" d="M455.25,133.39c0,2.67-2.17,4.84-4.84,4.84s-4.84-2.17-4.84-4.84s2.17-4.84,4.84-4.84
	S455.25,130.72,455.25,133.39z"/>
<path class="st0" d="M562.01,133.39c0,2.67-2.17,4.84-4.84,4.84s-4.84-2.17-4.84-4.84s2.17-4.84,4.84-4.84
	S562.01,130.72,562.01,133.39z"/>
<g>
	<path class="st1" d="M0,70.78c-0.02-3.01,0.19-5.74,0.92-8.4c0.73-2.64,1.86-5.07,4.2-6.7c1.89-1.3,4.04-1.88,6.3-2.12
		c3.18-0.35,6.24,0.25,9.21,1.32c0.83,0.3,1.64,0.64,2.45,0.99c0.35,0.14,0.49,0.08,0.57-0.29c0.89-4.1,1.77-8.22,2.7-12.33
		c0.7-3.09,2.2-5.73,4.41-8c3.82-3.93,8.06-7.36,12.47-10.59c4.77-3.48,9.77-6.63,14.89-9.59c5.2-3.01,10.53-5.79,15.92-8.41
		c4.58-2.23,9.24-4.33,13.92-6.35c0.37-0.16,0.75-0.38,1.18-0.29c0.57,0.11,1.03,0.41,1.24,0.97c0.21,0.59,0.08,1.11-0.35,1.57
		c-1.16,1.26-2.32,2.51-3.48,3.75c-0.72,0.78-1.45,1.56-2.16,2.34c-0.1,0.1-0.25,0.19-0.14,0.33c0.1,0.13,0.25,0.06,0.38,0.02
		c1.03-0.3,2.07-0.6,3.1-0.91c0.59-0.17,1.16-0.35,1.77-0.48c0.72-0.16,1.35,0.1,1.69,0.65c0.4,0.62,0.37,1.22-0.17,1.85
		c-0.87,0.99-1.78,1.94-2.67,2.91c-1.22,1.3-2.45,2.61-3.67,3.91c-0.29,0.32-0.33,0.49,0.14,0.65c2.69,0.94,5.36,1.89,8.05,2.83
		c2.43,0.84,4.87,1.64,7.29,2.53c2.32,0.86,4.76,1.42,6.92,2.62c2.88,1.62,4.72,4.07,5.57,7.27c0.7,2.67,1.46,5.34,2.18,8.02
		c0.78,2.89,1.56,5.81,2.35,8.7c0.43,1.61,0.89,3.23,1.3,4.84c0.11,0.43,0.35,0.43,0.65,0.25c1.83-0.99,3.74-1.73,5.74-2.26
		c3.58-0.94,7.13-1.07,10.71,0.11c3.21,1.07,5.23,3.28,6.39,6.38c1.3,3.52,1.54,7.17,1.43,10.88c-0.1,3.75-0.64,7.44-1.7,11.06
		c-0.59,1.97-1.42,3.79-3.32,4.87c-1.85,1.05-3.85,1.43-5.93,1.56c-1.57,0.1-3.15-0.05-4.69-0.38c-0.41-0.1-0.49,0.05-0.4,0.43
		c0.29,1,0.56,2,0.84,3.01c0.24,0.83-0.06,1.65-0.76,2.12c-0.68,0.45-1.54,0.41-2.16-0.19c-1.38-1.32-2.72-2.67-4.07-4.02
		c-2.7-2.7-5.39-5.41-8.1-8.1c-0.51-0.51-0.56-0.51-0.84,0.17c-2.23,5.31-4.45,10.61-6.68,15.92c-0.14,0.32-0.3,0.64-0.45,0.95
		c-0.22,0.52-0.16,0.65,0.41,0.72c2.4,0.25,4.82,0.48,7.22,0.73c2.99,0.3,5.98,0.62,8.99,0.92c1.21,0.13,2.43,0.24,3.64,0.35
		c0.87,0.08,1.77,0.17,2.64,0.27c0.48,0.05,0.8,0.3,0.81,0.78c0.02,0.46-0.25,0.75-0.75,0.84c-2.42,0.43-4.84,0.89-7.25,1.32
		c-2.78,0.51-5.57,1.02-8.35,1.53c-2.97,0.54-5.95,1.1-8.94,1.64c-0.57,0.1-1.18,0.1-1.77,0.13c-0.37,0.02-0.57,0.16-0.73,0.54
		c-1.8,4.33-3.64,8.65-5.46,12.98c-1.85,4.41-3.67,8.8-5.52,13.2c-1.3,3.1-2.61,6.19-3.91,9.29c-0.32,0.76-0.91,1.19-1.7,1.27
		c-0.78,0.06-1.37-0.3-1.78-0.94c-1.97-3.05-3.93-6.11-5.9-9.16c-0.13-0.19-0.21-0.51-0.45-0.51c-0.3,0-0.32,0.35-0.43,0.57
		c-2.16,4.31-4.33,8.64-6.51,12.95c-0.57,1.15-1.13,2.29-1.73,3.42c-0.4,0.76-1.1,1.1-1.91,0.97c-0.72-0.1-1.35-0.7-1.53-1.46
		c-0.73-3.24-1.46-6.47-2.2-9.72c-0.17-0.81-0.38-1.61-0.56-2.42c-0.03-0.17-0.05-0.38-0.24-0.43c-0.24-0.06-0.25,0.21-0.32,0.35
		c-1.4,2.53-2.78,5.06-4.17,7.59c-0.38,0.7-0.92,1.08-1.7,1.03c-0.75-0.05-1.26-0.45-1.57-1.15c-2.47-5.44-4.96-10.86-7.44-16.29
		c-2.72-5.93-5.44-11.85-8.16-17.77c-0.45-0.99-0.45-0.99-1.51-0.94c-1.22,0.06-2.43,0.1-3.66,0.19c-0.48,0.03-0.67-0.11-0.7-0.6
		c-0.13-2.5-0.25-4.99-0.41-7.49c-0.03-0.45,0.08-0.6,0.56-0.64c1.53-0.08,1.4,0.02,0.81-1.29c-1.97-4.33-3.94-8.64-5.93-12.96
		c-0.16-0.33-0.29-0.51-0.68-0.17c-2.62,2.27-5.28,4.52-7.92,6.78c-0.45,0.38-0.89,0.75-1.51,0.65c-0.95-0.14-1.51-0.91-1.34-1.88
		c0.19-1.02,0.41-2.04,0.65-3.05c0.16-0.64,0.13-0.72-0.51-0.59c-2.15,0.43-4.31,0.49-6.46,0.21c-2.1-0.29-4.06-0.92-5.62-2.47
		c-1.02-1-1.48-2.31-1.89-3.63C0.56,78.79,0.05,74.69,0,70.78z M84.23,13.23c0.13-0.03,0.19-0.13,0.22-0.24l0,0
		c0.3-0.17,0.52-0.41,0.68-0.73l0,0c0.25-0.02,0.33-0.22,0.25-0.38c-0.06-0.13-0.27-0.08-0.37,0.08c-0.08,0.02-0.14,0.03-0.22,0.05
		c-0.06,0-0.13-0.03-0.17-0.02c-1.38,0.4-2.77,0.86-4.15,1.21c-2.1,0.54-1.51,0.94-2.69-0.92c-0.19-0.29-0.14-0.46,0.05-0.72
		c0.37-0.46,0.87-0.78,1.13-1.32c0.05-0.05,0.1-0.1,0.13-0.14c0.46-0.37,0.89-0.75,1.18-1.27V8.8c0.13-0.02,0.24-0.06,0.22-0.22
		c0.05-0.05,0.08-0.1,0.13-0.14c0.64-0.56,1.24-1.13,1.7-1.83c0.06-0.08,0.14-0.16,0.21-0.24c0.3-0.16,0.52-0.41,0.67-0.72
		c-0.14-0.1-0.22-0.05-0.32,0c-2.5,1.18-5.01,2.34-7.51,3.55c-4.02,1.96-8.02,4.01-11.95,6.17c-5.12,2.8-10.12,5.82-14.95,9.08
		c-3.96,2.67-7.78,5.55-11.37,8.7c-1.83,1.59-3.59,3.24-5.19,5.06c-1.92,2.2-2.7,4.88-3.24,7.67c-0.45,2.24-0.95,4.45-1.45,6.68
		c-0.65,2.96-1.32,5.9-1.97,8.86c-0.43,1.97-0.84,3.96-1.29,5.93c-0.1,0.45-0.02,0.56,0.45,0.52c1.35-0.08,2.69-0.38,4.06-0.38
		c0.43,0,0.86-0.08,1.27-0.24c0.11-0.02,0.22-0.02,0.33-0.03c0.49,0.08,0.97,0.02,1.43-0.17c0.3-0.03,0.62-0.06,0.92-0.08
		c0.41,0.05,0.83,0.05,1.19-0.16c0.48-0.05,0.94-0.08,1.42-0.13c0.25,0.06,0.51,0.08,0.72-0.11c0.19-0.02,0.4-0.05,0.59-0.06
		c0.13,0.1,0.25,0.08,0.37-0.02c0.08-0.02,0.14-0.02,0.22-0.03c0.45-0.1,0.35-0.32,0.13-0.57c-0.05-0.19-0.1-0.38-0.14-0.57
		c0.08-0.32-0.08-0.57-0.22-0.84c-0.02-0.08-0.03-0.14-0.05-0.22c0.05-0.24,0-0.45-0.17-0.6c-0.02-0.08-0.03-0.14-0.05-0.22
		c0.03-0.27,0.02-0.52-0.21-0.72c-0.02-0.08-0.03-0.14-0.05-0.22c0.05-0.33,0-0.67-0.19-0.95c-0.02-0.16-0.05-0.32-0.06-0.46
		c0.11-0.13,0.06-0.25-0.03-0.37c0-0.86,0-1.73,0-2.59c0.08-0.08,0.11-0.16,0.02-0.24c0.02-0.16,0.05-0.32,0.06-0.46
		c0.19-0.25,0.22-0.54,0.19-0.84c0.03-0.11,0.05-0.22,0.08-0.33c0.17-0.11,0.22-0.29,0.17-0.49c0.02-0.08,0.03-0.14,0.06-0.22
		c0.11-0.05,0.16-0.13,0.11-0.24c0.11-0.11,0.14-0.27,0.16-0.41c0.22-0.11,0.3-0.3,0.27-0.54c0.6-0.92,1.26-1.8,2.08-2.55
		c0.25-0.14,0.22-0.3,0.02-0.45c0-0.03,0-0.05-0.03-0.06c0.02-0.16-0.03-0.25-0.17-0.3c-0.03-0.1-0.06-0.19-0.1-0.27
		c0.05-0.16-0.02-0.25-0.17-0.3c-0.02-0.06-0.05-0.11-0.06-0.17c0.05-0.22-0.06-0.37-0.22-0.48c0.02-0.17-0.05-0.32-0.13-0.46
		c0.06-0.14,0-0.25-0.13-0.32c-0.03-0.17-0.08-0.33-0.11-0.51c0.05-0.11,0.03-0.21-0.1-0.25c-0.02-0.08-0.05-0.14-0.06-0.22
		c0.08-0.1,0.03-0.17-0.05-0.25c-0.02-0.16-0.03-0.3-0.05-0.46c-0.08-1.03-0.1-2.07,0.02-3.1c0.03-0.21,0.06-0.43,0.1-0.64
		c0.19-0.1,0.21-0.24,0.16-0.43c0.03-0.13,0.06-0.25,0.1-0.4c0.27-0.3,0.4-0.65,0.48-1.03c0.06-0.1,0.11-0.21,0.17-0.3
		c0.16-0.08,0.21-0.22,0.22-0.38c0.54-0.72,1.13-1.37,1.77-2c0.16,0,0.24-0.08,0.27-0.22c0.46-0.32,0.92-0.64,1.38-0.95
		c0.14,0.02,0.24-0.06,0.3-0.17c0.05-0.03,0.11-0.05,0.16-0.08c0.14,0.03,0.24-0.05,0.32-0.16c0.06-0.02,0.11-0.03,0.17-0.06
		c0.16,0.05,0.25-0.03,0.32-0.16c0.13-0.03,0.25-0.08,0.38-0.11c0.24,0.03,0.43-0.08,0.6-0.21c0.08-0.02,0.14-0.03,0.22-0.05
		c0.3,0.05,0.57-0.05,0.84-0.19c0.27-0.03,0.54-0.05,0.81-0.08c0.92,0.05,1.85,0.05,2.75,0c0.35,0.03,0.7,0.05,1.03,0.08
		c0.38,0.17,0.78,0.25,1.19,0.19c0.16,0.02,0.3,0.03,0.46,0.05c0.11,0.1,0.24,0.13,0.38,0.05c0.08,0.02,0.14,0.03,0.22,0.05
		c0.29,0.22,0.62,0.21,0.97,0.17c0.14,0.03,0.3,0.05,0.45,0.08c0.25,0.21,0.54,0.21,0.84,0.17c0.14,0.02,0.3,0.05,0.45,0.06
		c0.25,0.21,0.54,0.22,0.84,0.17c0.11,0.02,0.22,0.03,0.33,0.05c0.29,0.21,0.62,0.25,0.95,0.19c0.32,0.05,0.62,0.1,0.94,0.14
		c0.17,0.17,0.38,0.17,0.59,0.13c0.08,0,0.14,0.02,0.22,0.02c0.08,0.08,0.16,0.1,0.25,0.03c0.16,0.02,0.3,0.05,0.46,0.06
		c0.17,0.16,0.37,0.19,0.59,0.13c0.08,0,0.16,0.02,0.22,0.02c0.08,0.1,0.16,0.11,0.24,0.02c0.4,0.03,0.78,0.05,1.18,0.08
		c0.84,0.27,1.73,0.19,2.59,0.19c0.51,0,1.05,0.06,1.54-0.17c0.3-0.03,0.62-0.06,0.92-0.08c0.27,0.05,0.52,0.05,0.73-0.16
		c0.11-0.02,0.22-0.05,0.33-0.06c0.1,0.06,0.17,0.05,0.25-0.03c0.08-0.02,0.14-0.02,0.22-0.03c0.41-0.1,0.86-0.11,1.19-0.45
		c0.11-0.03,0.24-0.08,0.35-0.11c0.16,0.05,0.24-0.05,0.32-0.16c0.21-0.02,0.35-0.11,0.49-0.24c0.17,0.03,0.32,0.02,0.38-0.17
		c0.22-0.13,0.46-0.27,0.68-0.4c0.46-0.21,0.92-0.45,1.22-0.89c0.06-0.05,0.13-0.11,0.19-0.16c1.5-1.05,2.55-2.58,3.93-3.74
		c0.03-0.03,0.08-0.06,0.11-0.1c0.16-0.1,0.33-0.19,0.49-0.3c3.69-2.72,7.81-3.98,12.41-3.59c0.62,0.05,1.22,0.29,1.86,0.24
		c0.11,0.02,0.22,0.03,0.33,0.06c0.16,0.19,0.37,0.25,0.6,0.19c0.08,0.02,0.14,0.03,0.22,0.05c0.46,0.33,1.03,0.45,1.54,0.65
		c1.03,0.45,1.89,1.13,2.83,1.7c0.1,0.1,0.21,0.19,0.3,0.29c0.02,0.14,0.1,0.22,0.25,0.24c0.08,0.24,0.25,0.38,0.48,0.48
		c0.1,0.11,0.17,0.21,0.27,0.32c0.43,0.78,1,1.5,1.35,2.32c1.1,2.58,1.11,5.22,0.37,7.87c-0.08,0.3-0.21,0.62,0.16,0.83
		c0.7,0.4,1.18,1,1.75,1.54c0,0.03,0.02,0.06,0.06,0.06c0.51,1.02,0.94,2.08,1.18,3.2c0,0.08,0.02,0.14,0.02,0.22
		c0,0.87,0,1.75,0,2.62c-0.02,0.19-0.02,0.38-0.03,0.57c-0.3,1.32-0.32,2.67-0.54,4.01c-0.11,0.72-0.32,1.42-0.24,2.15
		c-0.02,0.08-0.02,0.14-0.03,0.22c-0.13,0.16-0.13,0.37-0.16,0.54c-0.14,0.7-0.02,0.81,0.72,0.6c0.16-0.02,0.32-0.03,0.48-0.06
		c0.64,0.06,1.24,0,1.85-0.21c0.05,0,0.11-0.02,0.16-0.02c0.92,0.03,1.83-0.11,2.72-0.3c0.08,0,0.14-0.02,0.22-0.02
		c0.62,0.08,1.21-0.05,1.78-0.22c0.16-0.02,0.3-0.03,0.46-0.03c0.52,0.05,1.05,0,1.54-0.21c0.19-0.02,0.38-0.03,0.57-0.05
		c0.59,0.08,1.18-0.08,1.75-0.16c0.99-0.13,1-0.13,0.75-1.07c-0.83-3.13-1.67-6.27-2.51-9.4c-0.86-3.17-1.72-6.33-2.58-9.5
		c-0.43-1.56-0.81-3.12-1.29-4.66c-0.29-0.91-0.65-1.8-1.38-2.47c0-0.03-0.02-0.06-0.05-0.06c-0.02-0.19-0.16-0.3-0.32-0.38
		c-0.03-0.13-0.11-0.21-0.22-0.27c-0.11-0.11-0.24-0.22-0.35-0.33c-0.03-0.14-0.1-0.24-0.25-0.24c-0.1-0.24-0.32-0.35-0.49-0.48
		c-0.81-0.62-1.75-1.07-2.7-1.37c-1.35-0.45-2.66-1.02-4.04-1.35c-0.08-0.02-0.14-0.03-0.22-0.05c-0.67-0.38-1.4-0.62-2.15-0.76
		c-0.08-0.02-0.14-0.03-0.22-0.05c-0.13-0.16-0.27-0.25-0.49-0.21c-0.08-0.02-0.14-0.03-0.22-0.05c-0.24-0.3-0.64-0.29-0.95-0.41
		c-1.38-0.48-2.72-1.05-4.15-1.4c-0.08-0.02-0.14-0.03-0.22-0.05c-0.91-0.46-1.88-0.76-2.85-1.02c-0.08-0.02-0.14-0.03-0.22-0.05
		c-0.67-0.4-1.4-0.59-2.15-0.76c-0.08-0.02-0.14-0.03-0.22-0.05c-0.13-0.17-0.32-0.21-0.51-0.27c-1.18-0.41-2.37-0.81-3.53-1.26
		c-1.32-0.51-1.61-1.83-0.68-2.89c0.16-0.19,0.43-0.3,0.46-0.59l0.02-0.02c0.19-0.02,0.25-0.13,0.29-0.29
		c0.59-0.45,1.07-0.97,1.48-1.57c0.21-0.22,0.41-0.45,0.62-0.67C84.13,13.45,84.23,13.37,84.23,13.23z M82.95,123.35L82.95,123.35
		c0.22-0.05,0.3-0.21,0.3-0.41c0.03,0,0.05-0.03,0.05-0.06c0.32-0.27,0.51-0.62,0.65-1c0.03-0.02,0.05-0.03,0.05-0.06
		c0.14-0.05,0.21-0.13,0.21-0.29c0.03-0.05,0.06-0.11,0.08-0.16c0.25-0.21,0.41-0.48,0.51-0.78c0.03-0.02,0.03-0.05,0.03-0.08
		c0.14-0.05,0.22-0.13,0.19-0.29c0.03-0.05,0.06-0.1,0.1-0.16c0.24-0.22,0.43-0.46,0.48-0.8c0.03-0.06,0.05-0.11,0.08-0.17
		c0.3-0.17,0.35-0.48,0.43-0.76c0.03-0.05,0.05-0.11,0.08-0.16c0.13-0.06,0.19-0.16,0.16-0.32c0.03-0.05,0.06-0.1,0.1-0.16
		c0.57-1.02,0.91-2.12,1.37-3.18c0.21-0.49,0.02-0.57-0.41-0.57c-1.88,0.02-3.74,0.13-5.58,0.43c-0.8,0.13-1.59,0.27-2.31,0.65
		c-0.4,0.22-0.64,0.13-0.91-0.17c-0.4-0.45-0.73-0.97-1.21-1.35c0-0.08,0.02-0.16,0.02-0.22c0.3-0.17,0.67-0.22,0.89-0.51
		c0.13-0.03,0.25-0.08,0.38-0.11c0.48-0.14,0.97-0.22,1.43-0.46c0.08-0.02,0.14-0.03,0.22-0.05c0.3,0.06,0.59-0.02,0.84-0.19
		c0.19-0.03,0.38-0.05,0.57-0.08c0.38,0.08,0.75,0.02,1.08-0.17c0.3-0.02,0.62-0.05,0.92-0.06c0.99,0.02,1.99,0.02,2.97-0.19
		c1.18-0.02,2.35-0.03,3.55-0.05c0.29,0.11,0.56,0.06,0.84-0.05c0.08-0.02,0.14-0.02,0.22-0.03c0.32,0.08,0.56-0.1,0.8-0.25
		c0.05-0.03,0.11-0.05,0.16-0.08c0.16,0.02,0.24-0.06,0.29-0.21c0.08-0.08,0.14-0.14,0.22-0.22c0.19-0.13,0.33-0.27,0.32-0.52
		c0.02-0.06,0.03-0.11,0.05-0.17c0.27-0.25,0.29-0.54-0.03-0.72c-0.41-0.24-0.81-0.56-1.34-0.45c-0.08-0.02-0.14-0.03-0.22-0.05
		c-0.25-0.21-0.54-0.25-0.84-0.19c-2.23-0.11-4.45-0.05-6.7,0c-0.16-0.1-0.35-0.06-0.52-0.05c-1.86,0.05-3.74,0.1-5.6,0.14
		c-0.13,0-0.29-0.03-0.38,0.08c-0.91,0.02-1.81,0.05-2.72,0.06c-1.32-0.1-2.62,0.03-3.93,0.06c-0.22,0-0.48-0.06-0.67,0.11
		c-0.43,0.02-0.86,0.03-1.3,0.05c-0.45-0.08-0.87-0.08-1.3,0.05c-0.46,0.02-0.94,0.02-1.4,0.03c-1.27-0.03-2.53,0.03-3.79,0.21
		c-0.46,0.02-0.94,0.03-1.4,0.05c-1.19-0.08-2.39,0.02-3.56,0.19c-0.48,0.03-0.94,0.05-1.42,0.08c-0.92-0.08-1.83-0.03-2.72,0.17
		c-0.4,0.02-0.78,0.05-1.18,0.06c-0.87-0.03-1.75-0.06-2.59,0.19c-0.16,0.02-0.32,0.03-0.48,0.05c-0.54-0.08-1.03,0.06-1.5,0.3
		c-0.03,0-0.06,0.02-0.06,0.05c-0.45,0.25-0.57,0.72-0.67,1.16c-0.11,0.51,0.05,0.91,0.57,1.11c0.05,0.03,0.11,0.05,0.16,0.08
		c0.08,0.11,0.16,0.19,0.32,0.16c0.1,0.1,0.22,0.13,0.35,0.11c0.17,0.14,0.37,0.25,0.6,0.21c0.11,0.02,0.22,0.03,0.33,0.05
		c0.24,0.08,0.46,0.19,0.72,0.06c0.05,0,0.1,0,0.16,0c0.4,0.19,0.81,0.19,1.21,0c0.1,0,0.17-0.02,0.27-0.02
		c0.38,0.08,0.68-0.03,0.95-0.3c0.08-0.02,0.14-0.03,0.22-0.05c0.27,0.05,0.51-0.02,0.72-0.21c0.16-0.02,0.3-0.05,0.46-0.06
		c1.35,0,2.7,0,4.06,0c0.08,0.02,0.14,0.03,0.22,0.05c0.02,0.25,0.03,0.51,0.03,0.76c-0.08,0.14-0.06,0.3-0.05,0.46
		c-0.17,0.21-0.21,0.48-0.21,0.72c0.02,0.41-0.19,0.52-0.54,0.48c-1.86-0.27-3.66,0.1-5.42,0.62c-0.38,0.11-0.45,0.25-0.19,0.56
		c0.51,0.62,1,1.26,1.5,1.89c0.29,0.37,0.4,0.84,0.83,1.11c0,0.03,0.02,0.06,0.05,0.06c0.37,0.75,0.83,1.43,1.32,2.08
		c0.03,0.05,0.05,0.11,0.08,0.16c0.27,0.81,0.7,1.45,1.53,1.77c0.02,0.03,0.03,0.05,0.06,0.03c0.11,0.24,0.3,0.29,0.54,0.27
		c0.19,0.21,0.43,0.25,0.68,0.29c0.08,0.16,0.21,0.22,0.38,0.17c0.08,0.02,0.14,0.03,0.22,0.05c0.91,0.41,1.86,0.56,2.85,0.54
		c0.19,0.02,0.38,0.03,0.57,0.05c1.15,0.22,2.27,0.24,3.42,0c0.27-0.02,0.54-0.03,0.81-0.05c0.81,0.05,1.61-0.06,2.39-0.29
		c0.11-0.02,0.22-0.02,0.33-0.03c0.8,0.02,1.59-0.11,2.37-0.21c1.75,0,3.5,0,5.25,0c1.11,0,2.24,0.06,3.36-0.05
		c0.41,0.06,0.83,0.03,1.19-0.17c0.11-0.02,0.22-0.05,0.33-0.06c0.24,0.06,0.41-0.05,0.56-0.22c0.06-0.02,0.11-0.03,0.17-0.05
		C82.76,123.65,82.87,123.52,82.95,123.35z M137.5,82.78L137.5,82.78c0.25-0.06,0.41-0.21,0.46-0.48c0.03-0.02,0.05-0.03,0.03-0.06
		c0.33-0.14,0.35-0.48,0.43-0.76c0.11-0.1,0.13-0.22,0.13-0.35c0.14-0.13,0.25-0.27,0.21-0.49c0.03-0.1,0.05-0.19,0.08-0.29
		c0.22-0.22,0.27-0.49,0.24-0.8c0.02-0.08,0.03-0.14,0.05-0.22c0.22-0.21,0.24-0.46,0.19-0.73c0.02-0.08,0.03-0.14,0.05-0.22
		c0.19-0.21,0.24-0.46,0.19-0.73c0.02-0.11,0.03-0.22,0.05-0.33c0.17-0.3,0.27-0.6,0.21-0.95c0.02-0.08,0.02-0.14,0.03-0.22
		c0.11-0.11,0.14-0.24,0.05-0.38c0.02-0.08,0.03-0.14,0.05-0.22c0.22-0.38,0.24-0.78,0.19-1.19c0.02-0.19,0.05-0.38,0.06-0.57
		c0.21-0.49,0.25-1.02,0.19-1.56c0.02-0.3,0.03-0.62,0.06-0.92c0.19-0.52,0.14-1.08,0.16-1.62c0.06-1.35,0.13-2.7-0.17-4.04
		c-0.02-0.3-0.05-0.62-0.06-0.92c0.06-0.41,0.05-0.83-0.17-1.19c-0.02-0.11-0.03-0.22-0.06-0.33c0.05-0.33,0.05-0.67-0.17-0.95
		c-0.02-0.08-0.05-0.14-0.06-0.22c0.03-0.4-0.05-0.76-0.29-1.08c-0.02-0.08-0.03-0.14-0.05-0.22c-0.27-1.11-0.68-2.15-1.46-3.01
		c0-0.03-0.02-0.06-0.05-0.06c0-0.21-0.13-0.33-0.3-0.4c-0.03-0.03-0.06-0.08-0.1-0.11c-0.1-0.24-0.24-0.41-0.49-0.48
		c-0.46-0.6-1.13-0.87-1.81-1.08c-0.08-0.02-0.14-0.05-0.22-0.06c-0.46-0.32-0.97-0.51-1.54-0.51c-0.05-0.02-0.11-0.02-0.16-0.03
		c-0.35-0.27-0.75-0.25-1.15-0.22c-0.11-0.02-0.22-0.03-0.33-0.05c-1.1-0.27-2.2-0.25-3.29,0c-0.16,0.02-0.3,0.03-0.46,0.05
		c-0.91,0-1.78,0.17-2.61,0.52c-0.08,0.02-0.14,0.02-0.22,0.03c-0.25-0.06-0.43,0.05-0.6,0.22c-0.08,0.02-0.14,0.03-0.22,0.05
		c-0.86,0.11-1.62,0.52-2.42,0.86c-0.41,0.17-0.89,0.29-1.21,0.65c-0.1,0.03-0.17,0.06-0.27,0.1c-0.3,0.06-0.49,0.4-0.83,0.37
		c-0.4-0.05-0.35,0.16-0.29,0.41c0.3,1.1,0.59,2.2,0.87,3.29c0.35,1.32,0.33,1.32,1.61,0.92c0.33-0.11,0.67-0.22,1.02-0.24
		c0.19-0.02,0.4-0.05,0.52-0.24c0.08-0.02,0.14-0.03,0.22-0.05c0.33,0.06,0.64-0.03,0.91-0.22c0.05,0,0.11-0.02,0.16-0.02
		c0.6,0.03,1.19-0.1,1.78-0.29c0.19-0.02,0.38-0.02,0.57-0.03c0.92,0.05,1.83,0.05,2.75,0c0.11,0.02,0.22,0.02,0.33,0.03
		c0.72,0.17,1.43,0.35,2.15,0.52c0.08,0.02,0.14,0.03,0.22,0.06c0.05,0.11,0.13,0.16,0.24,0.13c0.05,0.03,0.11,0.05,0.16,0.08
		c0.1,0.08,0.19,0.21,0.32,0.25c0.56,0.22,0.46,0.49,0.13,0.86c-0.22,0.25-0.51,0.48-0.6,0.84c-0.1,0.1-0.17,0.21-0.27,0.3
		c-0.35,0.38-0.72,0.43-1.21,0.17c-0.45-0.24-0.97-0.4-1.5-0.3c-0.11,0-0.22-0.02-0.35-0.02c-0.19-0.17-0.43-0.24-0.64-0.08
		c-0.22,0.17-0.05,0.4,0.02,0.59c0.08,0.24,0.16,0.48,0.27,0.72c0.3,0.65,0.35,1.4,0.73,2.04c0.02,0.08,0.03,0.14,0.05,0.22
		c-0.08,0.49,0.17,0.91,0.3,1.35c0.16,0.62,0.14,1.27,0.46,1.85c0.02,0.08,0.03,0.14,0.03,0.22c-0.03,0.38-0.02,0.75,0.21,1.08
		c0.02,0.11,0.03,0.22,0.05,0.33c-0.03,0.45-0.02,0.87,0.22,1.27c0.02,0.13,0.03,0.25,0.03,0.4c-0.1,0.13-0.05,0.25,0.03,0.37
		c0.02,0.11,0.03,0.22,0.03,0.33c-0.03,0.52,0.06,1.05,0.21,1.54c0.02,0.19,0.03,0.38,0.03,0.57c-0.06,0.48,0,0.94,0.08,1.4
		c0.06,0.35-0.06,0.52-0.41,0.54c-0.65,0.05-1.29,0.1-1.92,0.16c-0.32,0.03-0.46-0.1-0.49-0.41c-0.16-1.62-0.3-3.24-0.54-4.85
		c-0.13-0.8-0.14-1.62-0.46-2.4c-0.02-0.06-0.02-0.13-0.03-0.21c0.08-0.33,0.02-0.65-0.21-0.92c-0.02-0.05-0.02-0.11-0.03-0.16
		c0.05-0.4-0.02-0.75-0.27-1.07c-0.02-0.11-0.03-0.22-0.05-0.33c0.05-0.24-0.02-0.45-0.21-0.6c-0.02-0.08-0.03-0.14-0.05-0.22
		c-0.19-1.16-0.64-2.24-1.18-3.28c-0.03-0.03-0.06-0.06-0.11-0.11c-0.16-0.27-0.33-0.19-0.54-0.06c-0.08,0.02-0.14,0.03-0.22,0.03
		c-1.08,0.17-2.1,0.6-3.15,0.92c-0.25,0.08-0.3,0.32-0.22,0.59c0.16,0.52,0.3,1.05,0.45,1.59c1.4,5.17,2.8,10.34,4.2,15.52
		c0.1,0.38,0.29,0.6,0.67,0.72c1.83,0.57,3.69,0.75,5.58,0.64c0.52-0.03,1.07,0,1.56-0.24c0.14,0.05,0.29,0.03,0.43-0.03
		c0.3,0.05,0.57,0.02,0.8-0.22c0.13-0.03,0.27-0.06,0.4-0.08c0.38-0.1,0.76-0.17,1.03-0.49c0.05-0.02,0.11-0.05,0.16-0.06
		c0.16,0.03,0.24-0.06,0.3-0.19c0.03,0,0.05,0,0.06-0.03C137.42,83.04,137.48,82.94,137.5,82.78z M49.14,101.55
		c-0.02,0.13,0.03,0.24,0.14,0.32c0.03,0.05,0.06,0.11,0.08,0.16c-0.02,0.16,0.06,0.24,0.21,0.27c0.03,0.11,0.11,0.19,0.22,0.22
		c0.05,0.14,0.11,0.22,0.27,0.21c0.05,0.03,0.11,0.06,0.16,0.08c0.19,0.21,0.4,0.3,0.68,0.24c0.08,0.02,0.14,0.02,0.22,0.03
		c0.48,0.19,0.94,0.14,1.42,0c0.11-0.02,0.22-0.03,0.33-0.05c0.3,0.05,0.59-0.03,0.84-0.19c0.11-0.02,0.22-0.05,0.33-0.06
		c0.21,0.06,0.37,0.02,0.49-0.17c0.11-0.03,0.22-0.05,0.33-0.08c0.86-0.16,1.65-0.49,2.39-0.99c0.11-0.05,0.22-0.1,0.35-0.13
		c0.16,0.03,0.24-0.05,0.3-0.16c0.05-0.02,0.11-0.05,0.16-0.06c0.33-0.06,0.62-0.19,0.83-0.46c0.08-0.03,0.16-0.06,0.25-0.1
		c0.16,0.03,0.24-0.08,0.29-0.19c0.05-0.02,0.11-0.05,0.16-0.06c0.16,0.03,0.25-0.05,0.3-0.19c0.05-0.02,0.11-0.05,0.16-0.06
		c0.16,0.03,0.24-0.05,0.29-0.19c0.06-0.02,0.13-0.05,0.17-0.06c0.21,0.05,0.32-0.1,0.45-0.24c0.1-0.03,0.17-0.06,0.27-0.1
		c0.14,0.03,0.24-0.05,0.32-0.16c0.06-0.02,0.11-0.03,0.17-0.05c0.17,0.05,0.32-0.02,0.43-0.17c0.1-0.03,0.19-0.06,0.27-0.08
		c0.27,0.05,0.51-0.05,0.72-0.22c0.11-0.02,0.22-0.03,0.33-0.05c0.3,0.06,0.59-0.03,0.84-0.19c0.94-0.05,1.89-0.06,2.83,0
		c0.33,0.19,0.7,0.24,1.08,0.21c0.08,0.02,0.14,0.03,0.22,0.03c0.62,0.25,1.26,0.43,1.91,0.52c0.08,0.02,0.14,0.03,0.22,0.06
		c0.13,0.17,0.29,0.24,0.49,0.17c0.11,0.03,0.22,0.05,0.33,0.08c0.11,0.19,0.29,0.24,0.49,0.19c0.08,0.02,0.14,0.03,0.22,0.05
		c0.56,0.33,1.16,0.48,1.8,0.52c0.11,0.02,0.22,0.05,0.33,0.06c0.16,0.19,0.37,0.24,0.6,0.17c0.14,0.02,0.3,0.05,0.45,0.06
		c0.62,0.21,1.26,0.29,1.91,0.21c0.14,0,0.3,0,0.45,0c0.73,0.06,1.45,0.1,2.15-0.19c0.19-0.03,0.38-0.05,0.57-0.08
		c0.24,0.06,0.45,0.05,0.6-0.16c0.24-0.05,0.46-0.1,0.7-0.14c0.19,0.06,0.32,0,0.43-0.16c0.17-0.03,0.33-0.06,0.51-0.1
		c0.45-0.1,0.91-0.16,1.27-0.48c0.1-0.03,0.19-0.05,0.29-0.08c0.13,0.05,0.21,0,0.24-0.11c0.11-0.03,0.22-0.05,0.33-0.08
		c0.29,0.05,0.57,0.05,0.87-0.02c0.14,0.02,0.3,0.05,0.45,0.06c0.17,0.17,0.38,0.22,0.6,0.17c0.11,0.03,0.22,0.05,0.33,0.08
		c0.16,0.17,0.37,0.25,0.6,0.21c0.11,0.02,0.22,0.03,0.33,0.05c0.37,0.25,0.78,0.33,1-0.08c0.19-0.37,0.41-0.78,0.37-1.24
		c0.02-0.08,0.03-0.14,0.05-0.22c0.41-0.87,0.67-1.78,0.76-2.74c0.02-0.08,0.03-0.14,0.05-0.22c0.22-0.21,0.22-0.46,0.19-0.73
		c0.02-0.11,0.03-0.22,0.06-0.33c0.21-0.24,0.25-0.54,0.21-0.84c0.02-0.08,0.02-0.14,0.03-0.22c0.16-0.38,0.29-0.76,0.21-1.19
		c0.02-0.08,0.02-0.14,0.03-0.22c0.1-0.11,0.13-0.24,0.03-0.37c0.02-0.16,0.03-0.32,0.06-0.46c0.27-0.87,0.22-1.77,0.03-2.66
		c-0.05-0.25,0-0.57-0.32-0.7c-0.05-0.1-0.11-0.21-0.16-0.3c0.02-0.14-0.06-0.24-0.19-0.29c-0.05-0.06-0.1-0.13-0.14-0.19
		c-0.02-0.21-0.11-0.35-0.32-0.41c0-0.03,0-0.05-0.03-0.06c-0.73-1-1.72-1.62-2.85-2.02c-1.32-0.48-2.69-0.56-4.07-0.54
		c-1.88,0-3.74-0.05-5.57-0.51c-1.72-0.43-3.13-1.27-3.77-3.05c-0.3-0.83-0.6-1.65-1.1-2.4c-0.99-1.54-2.64-1.67-3.85-0.32
		c-0.48,0.52-0.83,1.15-1.19,1.75c-0.33,0.54-0.73,1.02-1.24,1.4c-0.86,0.65-1.7,0.62-2.5-0.1c-0.52-0.48-0.99-1.02-1.38-1.61
		c-0.64-0.94-1.48-1.1-2.43-0.48c-0.57,0.38-0.87,0.83-0.78,1.57c0.19,1.42-0.38,2.4-1.69,3.05c-1.97,0.97-3.94,1.96-5.95,2.83
		c-0.91,0.4-1.65,0.99-2.23,1.78c-1.59,2.2-2.12,4.69-2.07,7.35c0,0.17-0.02,0.37,0.13,0.49c0.02,0.16,0.03,0.3,0.05,0.46
		c-0.05,0.41-0.03,0.83,0.21,1.19c0.02,0.08,0.03,0.14,0.05,0.22c-0.08,0.1-0.05,0.19,0.05,0.25c0.02,0.08,0.03,0.14,0.03,0.22
		c-0.06,0.29,0.05,0.51,0.21,0.72c0.02,0.08,0.02,0.14,0.03,0.22c0.05,0.51,0.14,1,0.46,1.43c0.02,0.08,0.03,0.14,0.05,0.22
		C48.47,101.08,48.64,101.41,49.14,101.55L49.14,101.55z M42.79,85.22c-0.21-0.38-0.37-0.78-0.7-1.08
		c-0.02-0.06-0.05-0.11-0.06-0.17c-0.37-1.05-0.75-2.1-1.02-3.18c-0.72-2.88-1.46-5.74-2.2-8.62c-0.1-0.35-0.27-0.57-0.67-0.37
		c-0.22,0.02-0.46,0.03-0.68,0.06c-0.45-0.03-0.91-0.05-1.32,0.17c-0.22,0.02-0.46,0.05-0.68,0.06c-0.86-0.08-1.67,0.14-2.5,0.29
		c-0.16,0.02-0.3,0.02-0.46,0.03c-0.52-0.05-1.05,0.03-1.54,0.21c-0.19,0.02-0.38,0.03-0.57,0.05c-0.49-0.05-0.97-0.03-1.43,0.19
		c-0.27,0.03-0.54,0.05-0.81,0.08c-0.13-0.02-0.27-0.05-0.4-0.03c-1.54,0.27-3.1,0.43-4.68,0.57c-0.37,0.03-0.45,0.3-0.51,0.62
		c-0.45,2.1-0.89,4.18-1.37,6.27c-0.59,2.67-1.19,5.33-1.78,7.99c-0.03,0.16-0.1,0.35,0.06,0.43c0.17,0.1,0.27-0.13,0.38-0.21
		c1.19-1.02,2.4-2.02,3.58-3.07c0.72-0.64,1.51-1.18,2.15-1.88c0.03,0,0.05,0,0.06-0.03c0.22,0,0.32-0.16,0.41-0.32
		c0.03,0,0.05-0.02,0.06-0.05c0.54-0.22,1.1-0.25,1.69-0.19c0.08,0.02,0.14,0.05,0.22,0.06c0.33,0.35,0.73,0.64,0.94,1.1
		c0.35,0.81,0.68,1.62,1.08,2.4c0.46,0.91,0.75,1.89,1.34,2.72c0.02,0.05,0.05,0.11,0.06,0.16c-0.05,0.13,0.03,0.22,0.08,0.33
		c0.57,1.27,1.16,2.53,1.73,3.8c1.02,2.23,2.05,4.45,3.09,6.68c0.14,0.3,0.25,0.65,0.68,0.64c1.1-0.03,2.2-0.05,3.28-0.24
		c0.43-0.02,0.86-0.03,1.29-0.05c1.08,0.05,2.15,0.05,3.2-0.19c0.11,0,0.22-0.02,0.35-0.02c0.33,0.03,0.29-0.21,0.24-0.38
		c-0.22-0.72-0.29-1.48-0.59-2.18c-0.02-0.08-0.02-0.14-0.03-0.22c0.06-0.41-0.05-0.81-0.21-1.19c-0.02-0.19-0.03-0.38-0.05-0.57
		c0.02-0.06,0.05-0.11,0.03-0.17c-0.27-2.82,0.21-5.5,1.53-8.02c0.11-0.22,0.06-0.43-0.22-0.49C44.54,86.95,43.62,86.17,42.79,85.22
		L42.79,85.22z M17.02,62.98c0.22,0.03,0.46,0.05,0.68,0.08c0.25,0.17,0.54,0.25,0.84,0.19c0.11,0.02,0.22,0.03,0.33,0.05
		c0.56,0.29,1.18,0.32,1.78,0.46c0.19,0.05,0.38,0.08,0.59,0.13c0.27,0.27,0.52,0.29,0.64-0.11c0.16-0.64,0.35-1.26,0.38-1.91
		c0.02-0.11,0.03-0.22,0.05-0.33c0.17-0.25,0.27-0.52,0.21-0.84c0.02-0.08,0.02-0.14,0.03-0.22c0.17-0.35,0.27-0.72,0.32-1.1
		c0.03-0.29,0.02-0.6-0.43-0.57c-0.05-0.02-0.11-0.05-0.16-0.06c-0.67-0.49-1.43-0.75-2.21-0.97c-0.16-0.05-0.3-0.1-0.46-0.14
		c-0.11-0.21-0.29-0.22-0.49-0.19c-0.08-0.02-0.14-0.03-0.22-0.05c-0.6-0.32-1.22-0.52-1.91-0.52c-0.08-0.02-0.14-0.03-0.22-0.05
		c-0.24-0.22-0.54-0.22-0.84-0.17c-0.19-0.02-0.38-0.05-0.57-0.06c-0.11-0.14-0.29-0.14-0.43-0.14c-1.67-0.08-3.34-0.1-4.98,0.32
		c-1.21,0.3-2.37,0.72-3.37,1.48c-1.24,0.94-1.92,2.26-2.45,3.67c-0.68,1.88-0.99,3.83-1.11,5.84c-0.29,4.99,0.21,9.89,1.69,14.68
		c0.68,2.2,2.72,3.67,4.88,3.61c0.16,0.02,0.3,0.03,0.46,0.05c1.05,0.35,2.12,0.13,3.18,0.16c0.21,0,0.43,0.03,0.6-0.16
		c0.19-0.02,0.38-0.05,0.57-0.06c0.51,0.08,0.99-0.08,1.43-0.27c0.08-0.02,0.14-0.03,0.22-0.05c0.21,0.05,0.37-0.03,0.49-0.19
		c0.08-0.02,0.14-0.03,0.22-0.05c0.38,0.02,0.51-0.19,0.45-0.56c0.02-0.08,0.02-0.14,0.03-0.22c0.4-1.16,0.64-2.35,0.78-3.56
		c0.02-0.08,0.03-0.14,0.05-0.22c0.21-0.25,0.27-0.52,0.21-0.84c0.02-0.08,0.02-0.14,0.03-0.22c0.17-0.25,0.25-0.52,0.21-0.84
		c0.02-0.08,0.02-0.14,0.03-0.22c0.08-0.08,0.13-0.14,0.03-0.24c0.02-0.05,0.02-0.11,0.03-0.16c0.19-0.14,0.21-0.33,0.14-0.56
		c0.05-0.24,0.08-0.46,0.13-0.7c0.22-0.24,0.25-0.52,0.21-0.84c0.02-0.08,0.03-0.14,0.03-0.22c0.27-0.76,0.48-1.54,0.51-2.37
		c0.02-0.05,0.02-0.11,0.03-0.16c0.22-0.27,0.25-0.59,0.22-0.92c0.02-0.11,0.03-0.22,0.05-0.33c0.19-0.25,0.25-0.52,0.19-0.84
		c0.02-0.08,0.03-0.14,0.05-0.22c0.19-0.25,0.25-0.52,0.21-0.84c0.02-0.11,0.03-0.22,0.05-0.33c0.16-0.21,0.27-0.45,0.19-0.73
		c0.02-0.08,0.02-0.14,0.03-0.22c0.27-0.56,0.32-1.19,0.46-1.78c0.08-0.33-0.1-0.56-0.49-0.52c-0.08-0.02-0.14-0.03-0.22-0.05
		c-0.17-0.17-0.37-0.25-0.6-0.19c-0.08-0.02-0.14-0.03-0.22-0.05c-0.25-0.19-0.52-0.29-0.84-0.22c-0.17-0.03-0.33-0.06-0.51-0.1
		c-0.32-0.25-0.54-0.21-0.65,0.19c-0.03,0.05-0.06,0.11-0.08,0.16c-0.51,0.92-0.84,1.89-1.07,2.93c-0.02,0.08-0.03,0.14-0.03,0.22
		c-0.56,1.42-0.86,2.88-1.02,4.39c-0.02,0.08-0.02,0.14-0.03,0.22c-0.25,0.6-0.32,1.26-0.3,1.91c-0.02,0.11-0.03,0.22-0.05,0.33
		c-0.24,0.54-0.25,1.1-0.21,1.67c-0.02,0.11-0.03,0.22-0.03,0.33c-0.21,0.32-0.16,0.68-0.19,1.02c-0.13,1.07-0.11,1.07-1.13,1.15
		c-0.35-0.02-0.7-0.03-1.05-0.05c-0.59-0.06-0.7-0.4-0.6-0.94c0.1-0.51,0.16-1.03,0.08-1.56c0.02-0.16,0.03-0.3,0.05-0.46
		c0.19-0.46,0.25-0.94,0.21-1.43c0.02-0.19,0.03-0.38,0.05-0.57c0.19-0.38,0.25-0.78,0.21-1.19c0.02-0.08,0.02-0.14,0.03-0.22
		c0.1-0.11,0.14-0.22,0.05-0.37c0.02-0.1,0.02-0.17,0.03-0.27c0.25-0.3,0.22-0.67,0.21-1.03c0.02-0.11,0.03-0.22,0.06-0.33
		c0.19-0.25,0.25-0.52,0.21-0.84c0.02-0.08,0.03-0.14,0.05-0.22c0.41-1.42,0.84-2.85,1.26-4.26c0.02-0.08,0.03-0.14,0.05-0.22
		c0.24-0.25,0.46-0.6,0.29-0.87c-0.19-0.32-0.6-0.11-0.92-0.06c-0.06,0.02-0.13,0.08-0.19,0.13c-0.19,0.03-0.38,0.05-0.57,0.08
		c-0.41-0.08-0.75,0.13-1.1,0.29c-0.3,0.14-0.54,0.16-0.8-0.06c-0.13-0.14-0.25-0.29-0.38-0.43c-0.03-0.16-0.08-0.3-0.25-0.33
		c-0.14-0.17-0.29-0.35-0.41-0.52c-0.02-0.16-0.1-0.24-0.24-0.25c0-0.03-0.02-0.05-0.05-0.06c0.02-0.16,0.02-0.32,0.03-0.48
		c0.24-0.13,0.46-0.24,0.7-0.37c0.67-0.24,1.34-0.48,2.02-0.72c0.16-0.02,0.3-0.05,0.46-0.06c0.8-0.02,1.59-0.06,2.39-0.06
		C15.83,62.92,16.42,62.97,17.02,62.98z M43.23,109.41c-0.45-0.11-0.89-0.1-1.32,0.06c-0.08,0.02-0.14,0.02-0.22,0.03
		c-1.15-0.08-1.18-0.03-0.72,0.95c0.54,1.16,1.07,2.32,1.59,3.48c1.83,4.01,3.66,8,5.49,12.01c1.67,3.64,3.34,7.29,4.99,10.93
		c0.64,1.4,1.26,2.8,1.89,4.18c0.13,0.27,0.3,0.48,0.52,0.08c0.8-1.46,1.59-2.93,2.37-4.39c0.06-0.1,0.16-0.17,0.21-0.27
		c0.72-1.29,1.42-2.58,2.13-3.87c0.35-0.6,1.07-0.95,1.69-0.87c0.81,0.13,1.37,0.62,1.56,1.4c0.22,0.95,0.46,1.91,0.68,2.86
		c0.48,2.1,0.95,4.22,1.45,6.33c0.24,1.05,0.49,2.1,0.75,3.15c0.03,0.11,0.03,0.27,0.19,0.25c0.08,0,0.14-0.11,0.21-0.19
		c0.06-0.1,0.13-0.21,0.17-0.3c2.51-5.04,5.04-10.08,7.56-15.11c0.45-0.87,1.24-1.3,2.18-1.15c0.73,0.13,1.13,0.67,1.5,1.24
		c1.89,2.96,3.79,5.92,5.68,8.88c0.1,0.14,0.19,0.35,0.38,0.32c0.19-0.02,0.25-0.24,0.32-0.4c1.46-3.52,2.93-7.03,4.39-10.55
		c2.27-5.44,4.57-10.86,6.86-16.3c0.7-1.67,1.4-3.32,2.12-4.99c0.22-0.52,0.16-0.64-0.38-0.62c-0.91,0.05-1.81,0.11-2.7,0.16
		c-0.11,0-0.27,0.02-0.3,0.13c-0.05,0.14,0.1,0.17,0.21,0.24c1.88,1.15,1.75,2.56,0.89,4.18c-0.83,1.54-2.26,2.18-3.9,2.43
		c-0.41,0.06-0.67,0.21-0.81,0.62c-1.08,3.18-2.69,6.09-4.47,8.92c-1.07,1.69-2.35,2.83-4.37,3.13c-1.51,0.22-3.02,0.27-4.53,0.21
		c-3.63-0.14-7.22,0.16-10.83,0.56c-3.15,0.35-6.3,0.16-9.34-0.87c-1.61-0.54-3.13-1.32-3.98-2.86c-1.54-2.82-3.55-5.28-5.6-7.71
		c-0.17-0.21-0.37-0.33-0.62-0.43c-1.08-0.37-2.04-0.91-2.74-1.85c0.02-0.14-0.05-0.24-0.19-0.3c-0.33-0.76-0.37-1.54-0.19-2.35
		c0.14-0.06,0.19-0.17,0.13-0.32c0.03-0.1,0.06-0.19,0.1-0.27c0.13-0.06,0.21-0.16,0.16-0.32c0.03-0.05,0.05-0.11,0.08-0.16
		c0.21-0.1,0.25-0.3,0.1-0.41c-0.22-0.19-0.51-0.16-0.75,0.02C43.62,109.33,43.43,109.33,43.23,109.41z M72.81,55.36
		c-0.02,0-0.03,0-0.05,0c0-1.89,0.06-3.79-0.02-5.66c-0.06-1.85,0.81-3.09,2.27-4.04c1.4-0.91,3.01-1.24,4.6-1.56
		c3.74-0.76,7.46-1.59,11.25-2.1c2.24-0.3,4.5-0.54,6.76-0.21c0.32,0.05,0.51-0.02,0.62-0.37c1.07-3.64,0.24-7.33-3.39-9.38
		c-3.72-2.12-7.6-1.94-11.48-0.41c-2.45,0.97-4.47,2.56-6.25,4.52c-2.72,3.01-6.14,4.72-10.15,5.19c-3.87,0.45-7.65-0.16-11.42-0.89
		c-2.37-0.46-4.74-0.97-7.17-1.05c-1.61-0.05-3.18,0.05-4.6,0.97c-1.53,1-2.74,2.24-3.13,4.09c-0.4,1.8,0.11,3.45,0.84,5.09
		c0.22,0.51,0.48,0.59,0.94,0.38c1.1-0.49,2.24-0.67,3.44-0.7c3.99-0.1,7.97-0.43,11.91-1.11c1.62-0.29,3.26-0.56,4.92-0.33
		c3.07,0.4,5.23,2.51,5.28,5.69c0.05,2.93,0.17,5.85,0.24,8.8c0.02,0.52,0.21,0.62,0.68,0.57c1.07-0.14,2.15-0.25,3.23-0.35
		c0.49-0.03,0.68-0.24,0.68-0.73C72.79,59.61,72.81,57.48,72.81,55.36z M124.33,86.79c-0.02-0.03-0.02-0.1-0.03-0.14
		c-0.4-1.43-0.81-2.86-1.21-4.31c-0.8-2.93-1.57-5.84-2.35-8.76c-0.84-3.13-1.65-6.27-2.55-9.38c-0.49-1.7-0.02-1.59-1.89-1.4
		c-0.11,0.02-0.24,0.02-0.35,0.02c-4.39,0.51-8.8,1.03-13.19,1.53c-0.4,0.05-0.6,0.17-0.65,0.57c-0.17,1.16-0.38,2.32-0.57,3.5
		c-0.49,3.05-0.99,6.09-1.5,9.15c-0.33,2.07-1.18,3.85-2.83,5.2c-1.26,1.02-2.75,1.48-4.31,1.77c-0.67,0.13-0.68,0.17-0.27,0.7
		c0.68,0.89,1.16,1.86,1.29,2.99c0.33,3.15-0.37,6.19-1.16,9.19c-0.17,0.67-0.21,0.67,0.48,0.64c2.66-0.11,5.31-0.25,7.95-0.35
		c0.52-0.02,0.8-0.21,0.97-0.65c0.64-1.53,1.27-3.04,1.91-4.57c2.05-4.93,4.1-9.86,6.19-14.78c0.17-0.41,0.41-0.8,0.8-1.07
		c1.05-0.73,2.1-0.59,3.17,0.48c2.82,2.82,5.65,5.65,8.46,8.46c0.45,0.45,0.89,0.89,1.34,1.34c0.06,0.06,0.13,0.16,0.24,0.13
		C124.33,86.98,124.33,86.9,124.33,86.79z M50.76,105.64c-5.73,0.25-11.44,0.6-17.16,0.81c-0.35,0.02-0.47,0.86-0.47,1.21
		c0,0.51,0.25,0.57,0.68,0.54c2.83-0.16,5.66-0.3,8.49-0.46c5.36-0.29,10.72-0.57,16.1-0.83c4.18-0.21,8.37-0.4,12.57-0.6
		c6.36-0.32,12.74-0.65,19.1-0.97c2.61-0.13,5.23-0.25,7.84-0.38c0.38-0.02,0.76-0.1,0.76-0.56c0-0.49-0.4-1.21-0.78-1.19
		c-0.1,0-0.19,0.02-0.3,0.02c-4.49,0.24-8.96,0.48-13.44,0.72c-6.28,0.32-12.58,0.6-18.87,0.92
		C60.43,105.12,55.59,105.39,50.76,105.64z M102.8,98.79c-0.4-0.11-0.94,0.08-1.42,0.52c-0.22,0.19-0.48,0.35-0.72,0.52
		c-0.46,0.33-0.46,0.4,0.05,0.7c0.64,0.38,1.27,0.78,1.92,1.13c0.45,0.24,0.37,0.41,0.02,0.67c-0.64,0.43-1.24,0.89-1.86,1.34
		c-0.29,0.21-0.4,0.38,0.02,0.59c0.46,0.22,0.89,0.51,1.34,0.75c0.3,0.17,0.6,0.19,0.97,0.13c3.29-0.6,6.57-1.19,9.86-1.8
		c1.16-0.21,2.32-0.43,3.48-0.64c0.37-0.06,0.49-0.22,0.41-0.6c-0.1-0.45-0.17-0.89-0.19-1.34c-0.02-0.41-0.14-0.59-0.59-0.6
		c-1.1-0.08-2.2-0.21-3.29-0.32C109.57,99.49,106.32,99.15,102.8,98.79z M75.38,60.85c0,1.85,0,3.71,0,5.55
		c0,0.6,0.13,0.7,0.64,0.49c0.81-0.3,1.9-0.94,2.03-1.73c0.16-1.02,0.21-2.04,0.16-3.05c-0.1-2.16-0.16-4.33-0.27-6.49
		c-0.06-1.27,0.05-2.51,0.45-3.72c0.51-1.51,1.42-2.72,2.99-3.17c1.1-0.31,1.77-0.31,2.5-0.58c0.81-0.3,1.35-1.09,1.38-1.95
		c0-0.07,0-0.13-0.01-0.16c-0.06-0.21-0.3-0.11-0.46-0.11c-0.08,0-0.16,0.02-0.24,0.03c-1.34,0.24-2.67,0.46-3.98,0.81
		c-1.1,0.3-2.18,0.65-3.09,1.4c-1.86,1.54-2.35,3.66-2.2,5.9C75.48,56.33,75.43,58.59,75.38,60.85z M39.37,59.64
		c0.03,0.35,0.02,0.95,0.14,1.53c0.65,2.93,1.35,5.85,2.04,8.78c0.1,0.45,0.32,0.46,0.6,0.16c0.82-0.53,1.72-0.1,1.99-2.22
		c0.14-1.35-0.11-1.95-0.39-3.25c-0.41-1.92-0.83-3.85-0.72-5.84c0.06-1.18,0.48-2.21,1.22-3.12c0.03-0.03-0.03,0.03,0,0
		c1.31-1.53,3.16-1.51,4.97-2.38c1.1-0.52-0.73-1.55-0.75-1.59c-0.1-0.14-0.24-0.11-0.38-0.08c-4.98,0.86-5.94,1.72-6.9,2.69
		C39.81,55.73,39.4,57.49,39.37,59.64z M72.81,71.06h-0.02c0-0.89-0.02-1.77,0.02-2.66c0.02-0.46-0.1-0.65-0.59-0.57
		c-1.08,0.14-2.18,0.27-3.28,0.4c-0.37,0.05-0.56,0.19-0.52,0.6c0.08,1.54,0.13,3.1,0.16,4.64c0.02,0.46,0.19,0.6,0.62,0.48
		c1.1-0.33,2.16-0.27,3.21,0.17c0.3,0.13,0.41,0.03,0.41-0.32C72.79,72.91,72.81,71.98,72.81,71.06z M39.66,104.33v0.01
		c0.62-0.05,1.26-0.09,1.88-0.12c1.43-0.06,2.86-0.13,4.29-0.21c0.21-0.02,0.57-0.5,0.49-0.87s-0.22-0.78-0.78-0.68
		c-0.24,0.05-0.48,0.03-0.7,0.05c-3.8,0.19-7.62,0.37-11.42,0.54c-0.37,0.02-0.56,0.1-0.51,0.51c0.03,0.33,0.08,1.11,0.51,1.09
		C35.49,104.54,37.57,104.44,39.66,104.33z M94.71,101.54c1.05-0.08,2.12,0,3.18-0.17c0.32-0.05,0.57-0.77,0.52-1.15
		c-0.05-0.4-0.35-0.38-0.62-0.37c-1.1,0.03-2.2,0.06-3.29,0.11c-0.76,0.03-1.53,0.11-2.29,0.16c-0.48,0.03-0.48,0.45-0.51,0.73
		c-0.02,0.33,0.32,0.83,0.54,0.82C93.05,101.64,93.88,101.59,94.71,101.54z M68.64,102.22c-2.07-0.76-4.1-0.75-6.09,0.29
		C64.6,102.64,66.62,102.46,68.64,102.22z"/>
	<path class="st1" d="M22.76,108.25c0.03,0.56,0.06,1.1,0.11,1.65c0.05,0.43-0.08,0.6-0.52,0.62c-3.42,0.16-5.17,0.19-8.59,0.36
		c-0.68,0.03-1.37,0.1-2.07,0.14c-1.86,0.13-3.18-1.07-3.28-2.91c-0.05-1-0.11-2-0.17-3.01c-0.08-1.34,0.97-2.66,2.32-2.83
		c1.64-0.21,3.29-0.21,4.95-0.3c2.59-0.13,3.52-0.14,6.11-0.28c0.73-0.05,0.78,0,0.83,0.7C22.56,104.37,22.67,106.31,22.76,108.25
		L22.76,108.25z"/>
	<path class="st1" d="M30.02,106.29c0.06,1.08,0.11,2.16,0.17,3.23c0.03,0.37-0.1,0.52-0.48,0.54c-1.42,0.06-2.83,0.13-4.23,0.22
		c-0.41,0.03-0.56-0.13-0.57-0.52c-0.13-2.61-0.29-5.22-0.45-7.83c-0.02-0.33,0.11-0.46,0.41-0.48c1.45-0.08,2.91-0.14,4.36-0.24
		c0.41-0.03,0.48,0.19,0.51,0.54C29.83,103.27,29.93,104.78,30.02,106.29L30.02,106.29z"/>
	<path class="st1" d="M68.81,80.53c0.02-1.26,0.72-2.12,1.64-2.07c0.86,0.05,1.56,1.08,1.46,2.16c-0.05,0.48-0.21,0.92-0.49,1.32
		c-0.57,0.8-1.73,0.7-2.26-0.19C68.94,81.35,68.8,80.92,68.81,80.53z"/>
	<path class="st1" d="M62.58,81.37c-0.02,0.84-0.57,1.48-1.27,1.48s-1.29-0.68-1.29-1.48c0-0.76,0.65-1.51,1.29-1.5
		C61.97,79.87,62.58,80.61,62.58,81.37z"/>
</g>
</svg>
