<?xml version="1.0" encoding="utf-8"?>
<!-- Generator: Adobe Illustrator 24.1.3, SVG Export Plug-In . SVG Version: 6.00 Build 0)  -->
<svg version="1.1" id="Layer_1" xmlns="http://www.w3.org/2000/svg" xmlns:xlink="http://www.w3.org/1999/xlink" x="0px" y="0px"
	 viewBox="0 0 71.8 551.3" style="enable-background:new 0 0 71.8 551.3;" xml:space="preserve">
<style type="text/css">
	.st0{opacity:0.25;}
	.st1{fill:none;stroke:#FFFFFF;stroke-width:2;stroke-miterlimit:10;}
</style>
<g class="st0">
	<path class="st1" d="M1,507.7c0-27.2,9.5-41.3,30.9-42.4v25.8c-6.4,1-9.6,5.9-9.6,16.6c0,14.9,6.3,17.5,13.5,17.5
		c7.3,0,13.7-2.6,13.7-17.5c0-10.7-3.3-15.6-9.8-16.6v-25.8c21.5,1.1,31.1,15.1,31.1,42.4c0,29.9-11.3,42.7-35,42.7
		C12.3,550.3,1,537.5,1,507.7z"/>
	<path class="st1" d="M48.5,388.6h21.3v69.8H2v-25.2h46.6V388.6z"/>
	<path class="st1" d="M69.9,356.6v25.2H2v-25.2H69.9z"/>
	<path class="st1" d="M21.4,323.6h6.3v-46.6h16.5v46.6h6.3v-46.6h19.4v71.8H2v-71.8h19.4V323.6z"/>
	<path class="st1" d="M2,182.8h67.9v33l-40.1,29.3h40.1v25.2H2v-33L42,208H2V182.8z"/>
	<path class="st1" d="M23.3,92.6v29.1h46.6v25.2H23.3V176H2V92.6H23.3z"/>
	<path class="st1" d="M45.9,62.5c3.3,0,5.5-3.1,5.5-19.1c0-14.9-1-17.2-3.5-17.2c-2.9,0-3.3,2.2-3.8,18.1c-1,30.7-6,42.4-21.8,42.4
		C7.4,86.7,1,72.1,1,45.3C1,18.8,7.4,3.9,24.8,3.9v25.2c-3.6,0-4.4,5.8-4.4,18.1c0,11.8,0.6,14.3,3.2,14.3s2.5-2.4,3.1-17.2
		C27.8,17.6,29.6,1,47.4,1c18.7,0,23.5,15.5,23.5,43.4s-4.8,43.4-24.9,43.4V62.5z"/>
</g>
</svg>
